<?xml version="1.0" standalone="yes"?>

<svg version="1.1" viewBox="0.0 0.0 602.9606299212599 286.76377952755905" fill="none" stroke="none" stroke-linecap="square" stroke-miterlimit="10" xmlns="http://www.w3.org/2000/svg" xmlns:xlink="http://www.w3.org/1999/xlink"><clipPath id="p.0"><path d="m0 0l602.96063 0l0 286.7638l-602.96063 0l0 -286.7638z" clip-rule="nonzero"></path></clipPath><g clip-path="url(#p.0)"><path fill="#000000" fill-opacity="0.0" d="m0 0l602.96063 0l0 286.7638l-602.96063 0z" fill-rule="evenodd"></path><path fill="#000000" fill-opacity="0.0" d="m15.396325 12.388452l563.21265 0l0 247.74802l-563.21265 0z" fill-rule="evenodd"></path><path fill="#000000" d="m95.84637 211.48622q0 -3.75 4.15625 -5.234375q16.40625 -6.375 33.312508 -39.96875q13.5 -26.734375 21.171875 -56.343758q2.984375 -11.484375 2.984375 -16.390625q1.78125 -1.0625 1.78125 0.71875q-7.15625 0 -19.0 11.84375q-2.03125 2.03125 -4.390625 2.03125q-2.34375 0 -4.25 -0.8125q-1.890625 -0.8125 -3.34375 -2.03125q-3.7968826 -2.953125 -3.7968826 -6.3125q0 -3.375 1.8125 -5.8125q1.8125076 -2.453125 4.5000076 -4.453125q2.703125 -2.015625 6.015625 -3.625q3.3125 -1.625 6.90625 -2.875q7.671875 -2.578125 11.890625 -2.578125q4.234375 0 7.4375 0.515625q3.203125 0.5 6.203125 1.765625q8.109375 3.5 8.109375 10.5q0 9.75 -5.984375 30.671875q-6.3125 21.968758 -16.546875 43.000008q-14.890625 29.796875 -31.609383 42.96875q-10.21875 8.078125 -19.640625 8.078125q-4.421875 0 -6.6875 -2.671875q-1.03125 -1.328125 -1.03125 -2.984375zm130.3125 -48.625q0 3.09375 1.40625 3.09375q2.21875 0 4.0625 -0.875q1.84375 -0.875 3.0625 -0.875q3.96875 0 3.96875 4.03125q0 6.765625 -6.78125 11.4375q-7.03125 4.8125 -14.484375 2.328125q-5.21875 -1.84375 -7.609375 -7.71875q-1.125 -2.921875 -1.125 -5.421875q0 -3.484375 3.28125 -6.875q-3.8125 13.828125 -13.21875 18.734375q-4.015625 2.046875 -8.5625 2.046875q-4.53125 0 -7.9375 -1.90625q-3.40625 -1.90625 -5.765625 -5.21875q-4.578125 -6.625 -4.171875 -16.375q0.40625 -11.78125 6.921875 -23.046875q5.953125 -10.484383 15.09375 -17.125008q9.390625 -6.953125 18.09375 -6.953125q8.71875 0 11.84375 4.6875q2.921875 -4.6875 7.703125 -4.6875q4.421875 0 6.9375 1.8125q5.3125 3.875 3.234375 7.734375q-15.421875 31.609383 -15.84375 39.015633q-0.109375 1.046875 -0.109375 2.15625zm-34.6875 0.25q0 4.84375 2.15625 4.84375q2.46875 0 7.046875 -5.328125q7.578125 -8.84375 13.484375 -23.984375q1.875 -4.75 3.046875 -9.0625q-0.140625 -2.4218826 -2.265625 -3.7031326q-0.5 -0.296875 -2.015625 -0.296875q-1.5 0 -4.0 1.375q-2.5 1.3593826 -5.046875 3.9375076q-2.53125 2.5625 -4.796875 6.1875q-2.265625 3.609375 -3.984375 7.890625q-3.625 9.140625 -3.625 18.140625zm98.15625 -33.84375q-0.796875 0 -3.953125 3.28125q-3.140625 3.28125 -5.703125 6.28125l-5.28125 6.328125l-10.078125 12.84375q-3.46875 6.59375 -5.5 11.09375l-3.40625 7.28125q-1.46875 3.03125 -2.953125 4.71875q-1.484375 1.671875 -4.0 1.671875q-2.5 0 -4.46875 -0.765625q-1.953125 -0.765625 -3.421875 -1.984375q-3.328125 -2.796875 -3.328125 -6.40625q0 -1.5625 1.640625 -4.84375l2.375 -5.0625q1.109375 -2.21875 2.5625 -5.625l3.484375 -8.53125q7.1875 -17.953125 7.1875 -22.812508q0 -1.53125 -0.765625 -2.09375l-1.21875 -0.859375q-1.765625 -1.21875 -1.765625 -3.484375q0 -2.28125 1.3125 -3.84375q1.328125 -1.5625 3.171875 -2.5625q3.40625 -1.75 6.828125 -1.75q3.421875 0 5.46875 0.828125q2.0625 0.8125 3.484375 2.234375q3.109375 2.953125 3.109375 6.0625q0 3.109375 -0.65625 5.75q-0.640625 2.6250076 -1.59375 5.1875076q-0.9375 2.5625 -1.96875 5.0q-1.015625 2.421875 -1.84375 4.21875l-1.265625 2.71875q-2.890625 -0.15625 -4.828125 -2.046875q7.0 -9.71875 9.25 -12.53125l4.40625 -5.2968826q5.0625 -5.921875 8.125 -7.921875q6.21875 -4.203125 10.046875 -4.203125q3.84375 0 6.5 0.984375q2.65625 0.984375 4.65625 2.84375q4.296875 3.984375 4.296875 9.765625q0 5.7812576 -2.375 11.453133q-2.359375 5.65625 -4.03125 9.015625q-1.65625 3.34375 -3.140625 6.734375q-4.453125 9.921875 -4.453125 14.109375q-0.53125 0 0.71875 -0.53125q1.96875 0 4.125 -1.125q2.15625 -1.125 3.4375 -1.125q3.96875 0 3.96875 3.96875q0 7.0 -6.875 11.53125q-4.46875 3.0 -8.28125 3.0q-3.796875 0 -6.375 -0.84375q-2.5625 -0.84375 -4.59375 -2.71875q-4.5625 -4.09375 -4.5625 -11.21875q0 -7.78125 4.78125 -19.171875q3.34375 -7.53125 4.734375 -10.3125l2.125 -4.421875q1.671875 -3.453125 1.671875 -4.125q0 -0.6875 -0.78125 -0.6875zm63.125 31.1875q4.46875 0 4.46875 5.09375q0 2.84375 -1.578125 5.28125q-1.9375 4.15625 -7.640625 7.828125q-6.40625 4.109375 -13.0 4.109375q-12.046875 0 -15.296875 -10.890625q-3.4375 -11.546875 8.421875 -43.734375q-5.46875 -0.46875763 -6.640625 -4.0000076q-0.328125 -0.96875 -0.328125 -2.25q0 -1.28125 0.921875 -2.640625q0.921875 -1.359375 2.140625 -2.421875q2.953125 -2.4375 6.15625 -2.4375l3.1875 0q6.328125 -14.84375 9.796875 -17.46875q2.09375 -1.53125 4.453125 -1.53125q2.375 0 3.96875 0.625q1.59375 0.609375 2.84375 1.78125q2.84375 2.65625 2.84375 6.125q0 1.828125 -1.0 3.984375l-5.53125 7.984375l0 -1.6875q3.84375 0 6.1875 -0.0625q0 0 3.53125 -0.0625q1.21875 -0.0625 4.359375 -0.0625q3.140625 0 3.140625 3.96875q0 10.906258 -22.15625 10.906258l0 -1.9218826l-2.265625 11.203133q-7.015625 19.03125 -7.015625 26.375q0 1.234375 0.296875 1.609375q0.296875 0.359375 2.15625 0.359375q1.859375 0 3.734375 -0.78125q1.875 -0.78125 3.421875 -1.84375q1.546875 -1.0625 3.09375 -2.25q1.546875 -1.1875 3.328125 -1.1875zm7.53125 -2.953125q0.265625 -5.796875 1.921875 -11.0625q1.65625 -5.265625 4.40625 -10.15625q2.765625 -4.890625 6.46875 -9.250008q3.71875 -4.359375 8.078125 -7.671875q9.640625 -7.21875 19.65625 -7.21875q12.484375 0 16.703125 10.453125q1.46875 3.5 1.390625 8.140633q-0.078125 4.625 -1.78125 8.5625q-1.6875 3.921875 -4.625 7.0625q-2.921875 3.140625 -6.859375 5.5625q-3.921875 2.40625 -8.5 4.0625q-9.296875 3.28125 -18.96875 1.953125q1.46875 0.09375 1.421875 1.53125q-0.046875 1.421875 0.296875 3.1875q0.359375 1.765625 1.1875 3.0625q1.484375 2.484375 4.234375 2.484375q6.5 0 12.75 -3.875q2.171875 -1.265625 3.96875 -3.0625q1.8125 -1.8125 4.21875 -1.8125q2.40625 0 3.84375 2.296875q1.4375 2.28125 1.4375 4.734375q0 4.21875 -2.53125 7.5q-8.78125 8.78125 -25.4375 8.78125q-10.28125 0 -16.625 -6.265625q-7.0625 -7.078125 -6.65625 -19.0zm39.15625 -31.734383q-5.15625 0 -10.421875 7.8125076q-4.890625 7.40625 -6.796875 13.859375q5.625 -0.5625 12.640625 -7.140625q6.234375 -5.953125 6.234375 -10.234375q0 -4.2968826 -1.65625 -4.2968826zm37.15625 29.562508l-0.5625 4.8125q0 5.828125 3.671875 7.8125q1.15625 0.625 2.984375 0.625q1.828125 0 3.25 -0.609375q1.421875 -0.625 2.296875 -1.59375q1.921875 -2.0625 1.921875 -4.90625q0 -2.859375 -1.3125 -5.46875q-1.296875 -2.609375 -3.375 -5.375l-4.953125 -6.078125q-6.359375 -7.609375 -8.578125 -14.015625q-2.21875 -6.4062576 -2.21875 -11.812508q0 -5.40625 1.296875 -10.1875q1.3125 -4.796875 3.640625 -9.09375q2.34375 -4.3125 5.625 -7.9375q3.296875 -3.625 7.3125 -6.234375q8.46875 -5.6875 16.875 -5.6875q8.40625 0 13.25 2.390625q4.859375 2.390625 7.859375 6.109375q5.453125 6.859375 5.453125 16.46875q0 8.84375 -4.984375 16.625q-4.6875 7.2812576 -10.59375 9.265633q-1.515625 0.765625 -4.078125 0.765625q-2.5625 0 -4.390625 -0.796875q-1.828125 -0.8125 -3.171875 -2.171875q-2.96875 -2.9687576 -2.96875 -6.6250076q0 -3.34375 2.46875 -4.65625q4.203125 -2.265625 7.34375 -6.640625q3.34375 -4.65625 3.484375 -8.921875q0.15625 -4.28125 -1.734375 -6.046875q-1.890625 -1.765625 -5.53125 -1.765625q-3.625 0 -6.703125 1.734375q-3.078125 1.71875 -5.375 4.71875q-5.078125 6.65625 -5.078125 15.828125q0 5.921875 4.234375 12.734383q1.875 3.09375 4.15625 6.1875q2.28125 3.09375 4.34375 6.453125q4.953125 8.203125 4.953125 14.90625q0 6.6875 -2.421875 11.328125q-2.421875 4.640625 -6.375 8.03125q-8.4375 7.265625 -19.234375 7.265625q-10.421875 0 -16.21875 -6.375q-4.6875 -5.203125 -4.6875 -11.40625q0 -6.578125 3.796875 -11.1875q3.0 -3.609375 6.078125 -4.390625q8.25 -2.1875 8.25 5.921875z" fill-rule="nonzero"></path></g></svg>

